<?xml version="1.0" encoding="UTF-8"?>
<svg id="Layer_2" xmlns="http://www.w3.org/2000/svg" version="1.1" viewBox="0 0 213.4 270.4">
  <!-- Generator: Adobe Illustrator 29.8.2, SVG Export Plug-In . SVG Version: 2.1.1 Build 3)  -->
  <defs>
    <style>
      .st0 {
        fill: none;
        stroke: #d70005;
        stroke-linecap: round;
        stroke-linejoin: round;
        stroke-width: 5px;
      }
    </style>
  </defs>
  <rect x="-10.6" y="-12.2" width="230.9" height="291.3"/>
  <g>
    <path class="st0" d="M72.2,220.4c0,4-3.2,7.2-7.2,7.2s-7.2-3.2-7.2-7.2,3.2-7.2,7.2-7.2,7.2,3.2,7.2,7.2Z"/>
    <circle class="st0" cx="150.3" cy="220.4" r="7.2"/>
    <path class="st0" d="M143,220.4h-70.8s32.1,25.7,35.4,25.7,35.4-25.7,35.4-25.7Z"/>
    <line class="st0" x1="46.7" y1="181" x2="65" y2="213.1"/>
    <line class="st0" x1="150.3" y1="213.1" x2="170.2" y2="181"/>
    <polyline class="st0" points="69.3 214.6 99.7 179 115.1 179 145.2 215.3"/>
    <line class="st0" x1="57.7" y1="174.1" x2="88.8" y2="174.1"/>
    <line class="st0" x1="126.6" y1="174.1" x2="157.5" y2="174.1"/>
    <path class="st0" d="M99.7,179s-2-14.9,7.5-14.7,7.8,14.7,7.8,14.7"/>
    <path class="st0" d="M15.9,228l37.4-92.5s10.8-22.6,40-10.4l.6-74.5c-66.3,4.6-53.4,66.3-54.3,77.9-.9,11.6-37.6,79.9-29.3,95.2s87.3,16.2,87.3,16.2"/>
    <path class="st0" d="M198.2,228l-37.6-94.9s-13.6-20-40.6-7.5l-.3-74.3s60.5-1.2,57.2,71.2c0,0,41.4,104,22.4,107.3-19.1,3.3-82.1,10.4-82.1,10.4"/>
    <line class="st0" x1="107.6" y1="193.2" x2="107.6" y2="210.7"/>
    <line class="st0" x1="91.4" y1="203.6" x2="90.9" y2="211.5"/>
    <line class="st0" x1="124" y1="203.6" x2="124.5" y2="210.7"/>
    <path class="st0" d="M65,160.1h26s7.9-2.6,6.6-14.2c-1.2-11.7-12.1-8.5-18.8-10.9s-20.7,1.5-19.3,16.3c0,0-2.1,7.7,5.4,8.9h0Z"/>
    <path class="st0" d="M149.6,160.1h-25.7s-7.8-2.6-6.6-14.2c1.2-11.7,12-8.5,18.6-10.9,6.6-2.5,20.6,1.5,19.1,16.3,0,0,2,7.7-5.3,8.9h-.1Z"/>
    <path class="st0" d="M130.6,64.6s4.3.8,7.6,3.5"/>
    <path class="st0" d="M147.5,74.7s8.5,4,12.7,17.6"/>
    <path class="st0" d="M93.3,125s12.5,22.4,26.7.6"/>
    <path class="st0" d="M93.9,50.6s11.9-17.2,25.7.8"/>
  </g>
</svg>