<?xml version="1.0" encoding="UTF-8"?><svg id="Layer_2" xmlns="http://www.w3.org/2000/svg" viewBox="0 0 1024 513.32"><g id="Layer_1-2"><path d="M25.08.87l8.29,122s18.9,5.26,22.92,5.64S150.36.87,150.36.87H25.08Z" style="fill:#282935;"/><polygon points="892.22 .87 991.01 120.03 1023.93 122.05 1024 .87 892.22 .87" style="fill:#282935;"/><polygon points="1019.95 436.8 990.81 435.93 983.82 463.91 920.86 511.79 1024 513.32 1019.95 436.8" style="fill:#282935;"/><polygon points="5.79 440.45 44.62 439.72 43.6 469.36 89.58 512.27 0 513.32 5.79 440.45" style="fill:#282935;"/><path d="M35.26,409.71c-2.01-4.02.98,53.92.98,53.92l16.46-6.96,2.68-47.15-20.12-19.25v19.45Z" style="fill:#282935;"/><polygon points="345.54 239.05 342.31 248.79 333.27 240.44 33.37 122.87 40.4 114.53 345.54 239.05" style="fill:#282935;"/><polygon points="445.02 147.42 449.68 157.17 476.82 157.17 485.3 148.27 445.02 147.42" style="fill:#282935;"/><polygon points="674.2 224.39 668.27 218.84 673.89 215.68 684.43 217.44 674.2 224.39" style="fill:#282935;"/><polygon points="991.01 124.02 704.03 237.48 705.28 233.07 990.42 114.07 996.83 119.11 991.01 124.02" style="fill:#282935;"/><path d="M666.97,329.92l-8.94,6.7v6.19s-6.09,3.22.72,10.02l1.07,4.65,5.37,1.43,1.78-29Z" style="fill:#282935;"/><path d="M31.48.87l7.37,475.08,302.96-118.58-1.62-115.33L34.79,118.58l3.25-43.86,315.14,145.39s77.16-82.03,77.16-79.6S374.29,0,374.29,0l34.11.87,48.73,127.46,112.09.81L621.21,1.62s31.68-.75,34.11-.75-61.73,139.64-61.73,139.64l82.03,81.22,299.71-134.83,8.12,30.05-295.65,127.52-2.44,113.71,307.02,116.15-2.44-472.71,34.05,1.62v509.63l-56.79-3.62-290.77-125.08-78.78,84.47,11.37-3.25,6.5,12.18,19.49,5.69,17.06,30.05h-281.03l17.06-27.62,19.49-6.5,4.06-10.56,18.68-1.62-82.03-82.03L46.97,513.32l-46.97-.45V.87h31.48ZM366.86,235.79s1.26,6.92-4.4,13.2,0,106.27,0,106.27c0,0,10.06,9.43,5.03,18.86l74.2,70.43,11.32-16.35,33.33,1.26,8.17-27.04h40.24l5.03,23.27,35.84.63,10.69,19.49,69.17-67.91s-1.26-16.98,8.8-20.12v-106.27s-6.92-.63-5.03-15.72l-76.71-77.97s-13.2-1.26-14.46-7.55h-109.41s-7.55,6.92-15.09,4.4l-76.71,81.12Z" style="fill:#282424;"/><polygon points="450.58 136.99 450.58 148.42 439.15 154.41 442.96 159.85 458.75 152.77 457.11 133.72 450.58 136.99" style="fill:#0c0c0f;"/><polygon points="442.96 159.85 368.94 231.15 376.56 213.73 420.1 169.65 415.75 162.57 353.7 220.26 432.08 141.34 442.96 159.85" style="fill:#0c0c0f;"/><path d="M366.22,236.05c2.72-4.9-3.81-5.44-3.81-5.44l-8.16,8.71,2.18,9.8-2.18,23.4v56.6l-8.71,2.18,9.8,3.27v26.67l2.18,11.43-7.62,5.44,4.35,5.44,12.52-9.8s-4.35-8.71-4.35-10.89-1.63-7.62-1.63-7.62l1.09-106.68,4.35-12.52Z" style="fill:#0c0c0f;"/><polygon points="370.2 376.72 372.59 387.04 421 435.45 417.03 442.2 354.25 383.55 431.32 463.63 445.21 461.64 438.86 448.94 370.2 376.72" style="fill:#0c0c0f;"/><line x1="442.96" y1="445.27" x2="452.35" y2="428.32" style="fill:#0c0c0f;"/><polygon points="424.97 474.38 445.21 461.64 478.85 459.17 494.49 405.3 532.73 405.3 546.64 457.87 577.05 460.04 599.65 473.95 590.52 484.38 438.01 484.38 424.97 474.38" style="fill:#0c0c0f;"/><polygon points="575.31 428.32 577.05 460.04 598.34 462.22 575.31 428.32" style="fill:#0c0c0f;"/><path d="M663.08,359.24s-3.91,9.12-3.48,16.08l-69.09,67.78,70.82-63.44,1.3,6.52-8.26,16.95-52.58,53.88,73-73.46,10.86-16.49-11.3,11.73-7.82-6.95-3.48-12.6Z" style="fill:#0c0c0f;"/><path d="M654.69,228.36l19.09-9.79.49,6.85-5.87,3.43-5.87,2.94,5.87,15.18,12.24-1.47,5.87-1.47-.83,115.21-3.2-108.82-13.66.68-5.74,108.14,2.32-108.14s-10.72-10.16-7.51-18.09l-3.21-4.65Z" style="fill:#0c0c0f;"/><polygon points="652.39 .87 583.47 156.55 568.15 152.17 576.36 147.8 585.11 145.61 646.92 4.48 628.87 3.93 581.28 130.29 573.62 131.39 624.49 2.9 652.39 .87" style="fill:#0c0c0f;"/><polygon points="464.08 151.71 486.26 143.06 562.93 143.06 565.56 137.8 541.5 136.3 517.83 132.16 470.1 132.16 573.62 131.39 573.45 136.3 568.15 152.17 464.08 151.71" style="fill:#0c0c0f;"/><polygon points="402.45 .87 453.56 127.65 446.79 130.66 443.41 120.51 394.55 .87 402.45 .87" style="fill:#0c0c0f;"/><polygon points="379.9 2.88 433.64 133.72 432.89 137.8 375.76 .87 379.9 2.88" style="fill:#0c0c0f;"/><polygon points="442.96 445.27 445.75 460.01 452.56 428.84 442.96 445.27" style="fill:#0c0c0f;"/><polygon points="323.62 366.74 338.56 363.25 347.52 383.67 154.28 466.35 148.8 462.37 205.58 439.95 202.59 431.98 208.07 431.98 210.56 437.96 326.11 387.16 336.57 377.2 334.57 372.22 326.11 372.22 323.62 366.74" style="fill:#0c0c0f;"/><polygon points="316.64 372.71 141.83 444.42 143.82 466.85 49.68 508.19 36.24 491.75 36.24 479.3 136.35 440.45 316.64 372.71" style="fill:#0c0c0f;"/><path d="M348.41,224.72l-9.17,17.53-71.73-27.5,67.75,20.72,6.38-9.96-158.61-65.67s1.59-4.07,1.59-4.87,151.84,65.36,151.84,65.36l-138.69-65.36,150.64,69.75Z" style="fill:#0c0c0f;"/><polygon points="140.57 160.29 150.36 134.43 144.49 134.04 45.75 85.46 34 120.72 140.57 160.29" style="fill:#0c0c0f;"/><polygon points="881.21 138.2 890.46 158.56 993.48 119.08 994.09 90.09 978.06 89.47 881.21 138.2" style="fill:#0c0c0f;"/><polygon points="883.67 161.65 880.59 155.48 685.68 235.67 876.27 162.88 686.51 244.03 883.67 161.65" style="fill:#0c0c0f;"/><polygon points="717.73 212.23 704.16 214.7 697.99 213.46 678.87 222.72 680.1 228.27 717.73 212.23" style="fill:#0c0c0f;"/><polygon points="885.44 440.55 871.91 468.01 818.18 440.55 869.92 462.22 876.28 445.32 691.61 372.09 876.28 440.94 698.3 367.71 885.44 440.55" style="fill:#0c0c0f;"/><polygon points="890.33 444.72 878.91 468.01 979.4 510.18 993.86 479.35 890.33 444.72" style="fill:#0c0c0f;"/><polygon points="374.47 510.77 379.04 503.16 392.74 501.13 397.82 493.01 622.12 493.01 625.17 501.13 643.44 504.17 650.54 511.79 374.47 510.77" style="fill:#0c0c0f;"/><polygon points="897.26 .87 972.46 82.84 992.25 56.45 944.75 4.34 999.5 3.68 1010.72 10.93 992.91 48.54 1019.95 16.21 1017.97 1.7 897.26 .87" style="fill:#0c0c0f;"/><polygon points="141.43 5.98 82.46 75.67 46.47 74.14 10.48 5.98 125.35 5.98 67.91 64.19 79.4 68.78 141.43 5.98" style="fill:#0c0c0f;"/><path d="M992.25,56.45l23.76-24.53,3.94,472.67-28.95,2.38,8.93-26.19-.6-153.59,13.1-1.19,1.19-8.33-14.29.6-.6-29.77,12.5-7.14.6-73.22-14.88-8.93v-75.19l13.69-1.01,2.38-18.45-15.48.6v-6.55h12.5s1.79-7.74,1.79-9.52-14.88.6-14.88.6l.6-7.74,11.91-1.79v-20.84l-17.21-2.86Z" style="fill:#0c0c0f;"/><path d="M3.38,508.19h37.39l-7.36-11.44,1.7-20.39,1.13-35.9-27.19-2.62-.57-10.2,13.6,1.13,2.27-56.05,10.76-1.17-1.11-48.72-26.08-1.7.57-10.2h19.83l.57-9.06-18.69-1.13.57-10.76h13.6l.57-9.63-13.6-3.4-.83-34.68,20.66-4.41,2.61-90.67-26.46-1.42-.58-17.63,10.7-1.16.87-5.2-11.85-1.73v-13.88l23.42-1.73s-.29-23.7-.58-24.86l-7.18-3.89.16-23.63,7.21-1.2L5.02,5.98l-3.6,2.03,1.96,500.17Z" style="fill:#0c0c0f;"/><polygon points="144.42 442.75 148.61 458.89 182.68 445.74 178.49 433.18 324.94 372.22 144.42 442.75" style="fill:#39413b;"/><polygon points="341.08 364.44 347.06 378.19 357.82 374.01 352.44 363.25 357.82 359.06 341.08 364.44" style="fill:#39413b;"/><polygon points="344.67 273.59 344.67 333.36 354.23 332.76 354.23 271.79 344.67 273.59" style="fill:#39413b;"/><polygon points="349.45 228.76 340.48 242.5 353.63 243.1 359.61 231.15 349.45 228.76" style="fill:#39413b;"/><polygon points="148.61 145.07 143.23 158.82 177.3 175.56 183.87 158.22 148.61 145.07" style="fill:#39413b;"/><polygon points="151.6 137.3 149.74 142.13 328.53 217.4 151.6 137.3" style="fill:#39413b;"/><polygon points="354.23 222.95 367.05 230.35 379.12 208.15 418.46 170.38 414.56 164.92 419.24 158.3 354.23 222.95" style="fill:#39413b;"/><polygon points="456.62 134.55 459.35 148.57 472.98 148.18 474.93 143.89 485.05 143.51 486.22 135.33 456.62 134.55" style="fill:#39413b;"/><polygon points="434.04 139.22 442.22 139.61 448.45 147.4 453.12 148.57 451.17 137.66 452.73 131.43 445.33 133.77 434.04 139.22" style="fill:#39413b;"/><polygon points="395.09 2.91 447.67 129.1 435.59 133.77 383.8 2.91 395.09 2.91" style="fill:#39413b;"/><polygon points="377.18 3.69 424.69 116.24 382.07 3.12 377.18 3.69" style="fill:#39413b;"/><polygon points="367.1 375.45 354 383.75 419.24 449.54 415.64 440.28 419.47 436.77 369.65 386.31 372.85 384.07 367.1 375.45" style="fill:#39413b;"/><polygon points="453.46 430.28 450.65 445.71 468.88 448.17 477.65 456.23 484.31 430.28 453.46 430.28" style="fill:#39413b;"/><polygon points="540.77 430.28 546.38 456.23 576.88 456.23 573.02 428.18 540.77 430.28" style="fill:#39413b;"/><path d="M425.41,469.91l-11.22.35-3.51,8.42-15.78,5.96-14.38,15.43,12.27-3.51,2.1-4.21,229.67-2.1,4.56,6.66s14.03,4.91,14.73,4.91-11.22-16.13-11.22-16.13l-19.99-7.36-4.91-7.01-7.36-.7v3.16l-9.12,11.57-156.74.53-9.82-7.89.7-8.06Z" style="fill:#39413b;"/><path d="M631.33,2.91l-47.73,123.92,9.55,4.02S646.4,5.36,646.9,3.12s-15.58-.2-15.58-.2Z" style="fill:#39413b;"/><path d="M572.54,134.55l-5.02,11.89,6.53,2.01s5.02-10.05,5.53-11.56-7.03-2.34-7.03-2.34Z" style="fill:#39413b;"/><polygon points="841.86 157.49 846.39 170.55 683.58 238.89 676.55 226.83 704.19 217.78 710.22 218.79 835.83 163.52 841.86 157.49" style="fill:#39413b;"/><polygon points="660.47 231.35 664.99 234.37 676.55 226.83 660.47 231.35" style="fill:#39413b;"/><polygon points="655.37 379.97 647.29 398.14 607.42 438.51 610.45 444.57 597.33 458.19 588.75 449.11 597.83 439.52 600.9 442.21 603 439.41 600.43 435.67 641.55 397.35 655.37 379.97" style="fill:#39413b;"/><path d="M876.48,134.55c.49-.21,2.96,4.73,2.96,4.73l5.93-5.93,92.9-44.47-3.46-4.45-98.33,50.12Z" style="fill:#39413b;"/><polygon points="885.74 442.21 874.96 466.08 975.39 509.68 880.84 465.59 885.74 442.21" style="fill:#39413b;"/><polygon points="891.13 437.67 893.09 444.04 991.55 479.31 994.98 473.92 891.13 437.67" style="fill:#39413b;"/><polygon points="133.06 440.08 135.38 444.26 38.65 479.14 34.46 474.49 133.06 440.08" style="fill:#39413b;"/><polygon points="47.11 83.69 50.23 90.45 144.42 137.3 151.6 137.3 47.11 83.69" style="fill:#39413b;"/><polygon points="683.44 370.99 680.6 379.5 839.86 447.58 846.34 434.21 683.44 370.99" style="fill:#39413b;"/><polygon points="685.87 364.51 684.37 368.5 874.96 440.29 685.87 364.51" style="fill:#39413b;"/><polygon points="189.45 167.37 185.6 176.41 277 211.08 280.7 203.95 189.45 167.37" style="fill:#282935;"/><polygon points="672.7 256.87 668.51 354.5 680.44 359.83 680.6 313.85 674.64 312.4 678.51 286.75 680.6 256.87 672.7 256.87" style="fill:#282935;"/><path d="M590.52,147.42c2.81-1.02-2.51,10.59-2.51,10.59l19.36,22.26,14.04-3.39,10.16,10.65,4.36,18.39,15,18.39,15-3.39-71.14-74.14-4.26.63Z" style="fill:#282935;"/><polygon points="684.43 230.35 700.68 221.88 714.2 224.13 688.84 236.53 684.43 230.35" style="fill:#282935;"/><polygon points="745.7 398.07 743.95 403.67 812.44 435.86 819.54 426.76 745.7 398.07" style="fill:#282935;"/><polygon points="741.5 396.32 737.31 400.87 704.39 389.67 707.21 381.62 741.5 396.32" style="fill:#282935;"/><path d="M738.77,208.75c-.46-2.32,3.38,5.07,3.38,5.07l91.48-39.02-1.97-5.74-92.89,39.69Z" style="fill:#282935;"/><polygon points="598.21 96.86 602.94 99.44 621.96 61.46 612.42 59.39 598.21 96.86" style="fill:#282935;"/><polygon points="615.25 54.66 623.18 56.38 636.73 27.75 626.63 26.66 615.25 54.66" style="fill:#282935;"/><polygon points="634.38 5.99 626.63 26.66 636.97 22.79 641.7 12.45 634.38 5.99" style="fill:#282935;"/><polygon points="869.85 141.34 873.52 154.01 852.7 163.19 848.42 155.23 722.95 207.9 869.85 141.34" style="fill:#282935;"/><polygon points="421.76 93.12 428.49 90.75 445.02 127.59 436.42 131.95 421.76 93.12" style="fill:#282935;"/><polygon points="398.33 181.66 401.16 185.03 379.91 207.4 374.62 205.24 398.33 181.66" style="fill:#282935;"/><polygon points="478.33 457.84 491.74 400.87 534.67 400.87 546.64 457.87 530.65 405.3 496.22 405.3 478.33 457.84" style="fill:#282935;"/><polygon points="362.96 385.4 403.3 429.37 407.23 426.09 366.88 383.55 362.96 385.4" style="fill:#282935;"/><polygon points="67.76 125.69 34 160.29 29.93 122.87 67.76 125.69" style="fill:#282935;"/><polygon points="975.39 122.87 995.48 147.12 999.28 121.48 975.39 122.87" style="fill:#282935;"/><polygon points="662.14 230.14 672.02 225.41 676.2 228.92 665.64 234.2 662.14 230.14" style="fill:#cdedfd;"/><polygon points="703.12 211.81 706.81 213.65 838.52 159.55 848.81 151.1 703.12 211.81" style="fill:#cdedfd;"/><polygon points="979.83 128.24 992.5 143.52 993.36 140.25 981.76 127.19 979.83 128.24" style="fill:#cdedfd;"/><polygon points="880.8 133.2 884.03 134.96 977.19 87.94 976.89 85.01 880.8 133.2" style="fill:#cdedfd;"/><polygon points="666.45 362.01 663.57 372.6 667.74 374.85 666.78 370.35 665.65 368.43 666.45 362.01" style="fill:#cdedfd;"/><polygon points="678.17 360.85 682.81 362.4 681.09 368.24 680.57 363.95 678.17 360.85" style="fill:#cdedfd;"/><polygon points="147.94 146.95 144.31 156.18 177.96 169.71 180.93 162.78 147.94 146.95" style="fill:#cdedfd;"/><polygon points="152.89 137.38 152.23 141.34 324.12 213.59 152.89 137.38" style="fill:#cdedfd;"/><polygon points="50.77 84.8 55.5 89.93 144.31 132.53 148.19 131.74 50.77 84.8" style="fill:#cdedfd;"/><polygon points="491.82 401.29 491.15 404.14 480.8 448.03 494.49 405.3 530.55 401.29 491.82 401.29" style="fill:#cdedfd;"/><path d="M144.02,447.22s4.87,11.51,4.87,10.18,32.32-14.17,32.32-14.17l-2.66-10.63-34.53,14.61Z" style="fill:#cdedfd;"/><polygon points="141.8 441.46 143.19 445.06 324.12 371.07 141.8 441.46" style="fill:#cdedfd;"/><polygon points="136.75 442.55 37.48 477.36 36.38 474.06 136.75 442.55" style="fill:#cdedfd;"/><polygon points="572.35 427.85 572.35 450.98 549.57 454.38 575.07 454.38 572.35 427.85" style="fill:#cdedfd;"/><polygon points="381.18 5.99 433.64 133.72 386.73 5.99 381.18 5.99" style="fill:#cdedfd;"/><path d="M146.07,3.21l-64.15,90.12-8.36-4.29s3.84-5.65,4.07-5.87,5.87,1.58,5.87,1.58L137.75,10.34l-6.13-1.48,2.26-4.97,12.2-.68Z" style="fill:#cdedfd;"/><polygon points="57.11 132.53 49.58 128.39 44.71 132.37 51.13 137.69 39.83 148.32 33.19 141.68 27.43 142.34 28.98 158.33 32.3 159.84 56.67 135.03 57.11 132.53" style="fill:#cdedfd;"/><polygon points="29.93 164.29 33.05 165.45 34.36 298.61 34.51 314.05 34.58 321.01 35.09 372.73 35.26 390.26 31.51 390.11 31.51 373.51 29.58 319.85 29.96 313.29 28.42 295.92 28.42 288.97 32.66 288.59 32.28 275.85 22.63 273.92 22.63 248.79 29.96 244.97 29.93 164.29" style="fill:#cdedfd;"/><polygon points="897.26 4.41 967.34 84.43 979.33 81.27 977.21 74.57 965.93 76.69 907.02 11.52 913.75 8.29 912.34 4.06 897.26 4.41" style="fill:#cdedfd;"/><polygon points="993.36 147.12 997.64 146.15 996.83 204.28 1005.72 210.44 1007.65 238.89 1000.33 240.85 1000.72 248.55 1006.49 252.01 1007.65 276.65 997.25 286.28 996.83 464.34 987.97 466.42 988.39 459.76 992.96 453.94 993.36 147.12" style="fill:#cdedfd;"/><polygon points="622.99 5.13 625.06 9.25 575.97 125.45 572.22 126.5 622.99 5.13" style="fill:#cdedfd;"/><polygon points="362.94 218.5 371.97 207.5 372.37 203.57 407.41 167.37 413.22 167.43 420.29 160.36 418.72 156.82 428.15 147 424.62 146.21 362.94 218.5" style="fill:#cdedfd;"/><polygon points="342.69 247.65 346.07 247.65 347.52 271.79 344.38 271.69 344.67 334.93 347.75 336.61 347.52 354.65 344.38 356.09 342.69 339.02 342.69 247.65" style="fill:#cdedfd;"/><polygon points="453.34 430.91 452.07 444.44 455.04 434.68 478.33 430.91 453.34 430.91" style="fill:#cdedfd;"/><polygon points="413.77 471.25 409.66 478.58 389.93 486.85 376.79 506.91 390.76 489.08 410.72 480.91 416.02 472.43 419.84 469.89 413.77 471.25" style="fill:#cdedfd;"/><polygon points="470.16 458.89 446.58 461.54 427.22 472.97 442.96 460.01 470.16 458.89" style="fill:#cdedfd;"/><polygon points="339.37 360.33 352.55 355.02 355.5 358.37 341.08 364.44 339.37 360.33" style="fill:#cdedfd;"/><polygon points="570.98 133.72 564.5 149.52 570.39 148.05 575.98 136.57 570.98 133.72" style="fill:#cdedfd;"/><polygon points="586.71 158.89 614.52 187.31 640.93 214.3 654.69 228.36 658.93 226.37 648.04 215.68 644.25 214.29 613.71 180.91 588.01 154.15 586.71 158.89" style="fill:#cdedfd;"/><polygon points="666.97 256.66 665.65 327.89 660.72 337.43 660.01 340.62 664.96 338.14 666.02 332.48 669.21 328.95 671.17 292.52 675.22 289.69 672.74 285.44 668.51 285.8 670.6 256.66 666.97 256.66" style="fill:#cdedfd;"/><polygon points="597.33 439.1 600.85 440.04 603.44 438.87 601.32 436.28 655.52 383.45 661.9 377.58 668.48 378.99 674.11 377.35 664.48 370.3 659.55 371.71 657.2 377.58 597.33 439.1" style="fill:#cdedfd;"/><polygon points="353.7 386.44 413.78 447.7 431.65 465.93 434.98 461.4 420.51 448.78 353.7 386.44" style="fill:#cdedfd;"/><polygon points="689.1 365.81 878.91 437.68 879.15 451.53 886.55 442.01 970.11 469.91 971.7 479.56 980.16 481.14 985.45 473.21 686.51 359.24 689.1 365.81" style="fill:#cdedfd;"/></g></svg>