<?xml version="1.0" encoding="UTF-8"?>
<svg id="Layer_2" xmlns="http://www.w3.org/2000/svg" version="1.1" viewBox="0 0 262.8 129">
  <!-- Generator: Adobe Illustrator 29.8.2, SVG Export Plug-In . SVG Version: 2.1.1 Build 3)  -->
  <defs>
    <style>
      .st0 {
        fill: none;
        stroke: #d70005;
        stroke-linecap: round;
        stroke-linejoin: round;
        stroke-width: 5px;
      }
    </style>
  </defs>
  <g>
    <g>
      <g>
        <polyline class="st0" points="126.5 20.3 126.5 31.4 116 41.9 93 41.9"/>
        <polyline class="st0" points="105.7 50 115.7 50 126.5 60.9 126.5 69.3"/>
      </g>
      <g>
        <polyline class="st0" points="135.3 20.3 135.3 31.5 145.2 41.9 166.9 41.9"/>
        <polyline class="st0" points="154.9 50 145.5 50 135.3 61 135.3 69.4"/>
      </g>
    </g>
    <g>
      <polyline class="st0" points="112.6 70.8 98.8 91.2 113.5 91.2 117.4 87.3"/>
      <polyline class="st0" points="114.6 97.9 90.4 97.9 83 108.8"/>
    </g>
    <g>
      <polyline class="st0" points="146.3 70.8 159.2 91.2 145.4 91.2 141.8 87.3"/>
      <polyline class="st0" points="144.4 97.9 167.1 97.9 174 108.8"/>
    </g>
  </g>
  <polygon class="st0" points="6.5 35.4 8.4 53.1 59.1 47.1 6.5 35.4"/>
  <polygon class="st0" points="258.1 32.8 256.3 51 207.2 44.8 258.1 32.8"/>
</svg>