<?xml version="1.0" encoding="UTF-8"?><svg id="Layer_2" xmlns="http://www.w3.org/2000/svg" viewBox="0 0 1920 1094.2"><g id="Layer_1-2"><g id="uuid-0bfc15e2-0efc-4db3-987b-d6dec9892397"><path d="M47.02,1.85l15.54,260.06s35.44,11.21,42.98,12.02S281.93,1.85,281.93,1.85H47.02Z" style="fill:#282935;"/><polygon points="1672.91 1.85 1858.14 255.86 1919.87 260.16 1920 1.85 1672.91 1.85" style="fill:#282935;"/><polygon points="1912.41 931.09 1857.77 929.23 1844.66 988.88 1726.61 1090.94 1920 1094.2 1912.41 931.09" style="fill:#282935;"/><polygon points="10.86 938.87 83.66 937.31 81.75 1000.49 167.96 1091.96 0 1094.2 10.86 938.87" style="fill:#282935;"/><path d="M66.11,873.34c-3.77-8.57,1.84,114.94,1.84,114.94l30.86-14.84,5.03-100.51-37.73-41.03v41.46-.02Z" style="fill:#282935;"/><polygon points="647.89 509.56 641.83 530.32 624.88 512.53 62.57 261.91 75.75 244.13 647.89 509.56" style="fill:#282935;"/><polygon points="834.41 314.24 843.15 335.03 894.04 335.03 909.94 316.05 834.41 314.24" style="fill:#282935;"/><polygon points="1264.13 478.31 1253.01 466.48 1263.54 459.75 1283.31 463.5 1264.13 478.31" style="fill:#282935;"/><polygon points="1858.14 264.36 1320.06 506.22 1322.4 496.82 1857.04 243.15 1869.06 253.9 1858.14 264.36" style="fill:#282935;"/><path d="M1250.57,703.26l-16.76,14.28v13.19s-11.42,6.86,1.35,21.36l2.01,9.91,10.07,3.05,3.34-61.82v.02Z" style="fill:#282935;"/><path d="M59.02,1.85l13.82,1012.69,568.05-252.77-3.04-245.84L65.23,252.77l6.09-93.49,590.89,309.92s144.68-174.86,144.68-169.68S701.79,0,701.79,0l63.96,1.85,91.37,271.7,210.17,1.73L1164.77,3.45s59.4-1.6,63.96-1.6-115.74,297.66-115.74,297.66l153.81,173.13,561.96-287.41,15.22,64.05-554.34,271.82-4.58,242.39,575.66,247.59-4.58-1007.64,63.84,3.45v1086.33l-106.48-7.72-545.19-266.62-147.71,180.06,21.32-6.93,12.19,25.96,36.54,12.13,31.99,64.06h-526.93l31.99-58.88,36.54-13.86,7.61-22.51,35.02-3.45-153.81-174.86L88.07,1094.2l-88.07-.96V1.85h59.02ZM687.86,502.61s2.36,14.75-8.25,28.14,0,226.53,0,226.53c0,0,18.86,20.1,9.43,40.2l139.13,150.13,21.23-34.85,62.49,2.69,15.32-57.64h75.45l9.43,49.6,67.2,1.34,20.04,41.55,129.69-144.76s-2.36-36.19,16.5-42.89v-226.53s-12.97-1.34-9.43-33.51l-143.83-166.2s-24.75-2.69-27.11-16.09h-205.14s-14.16,14.75-28.29,9.38l-143.83,172.92h-.02Z" style="fill:#282424;"/><polygon points="844.84 292.01 844.84 316.37 823.41 329.14 830.55 340.74 860.16 325.65 857.08 285.04 844.84 292.01" style="fill:#0c0c0f;"/><polygon points="830.55 340.74 691.76 492.72 706.05 455.59 787.69 361.63 779.53 346.54 663.19 469.51 810.15 301.28 830.55 340.74" style="fill:#0c0c0f;"/><path d="M686.66,503.17c5.1-10.44-7.14-11.6-7.14-11.6l-15.3,18.57,4.09,20.89-4.09,49.88v120.65l-16.33,4.65,18.37,6.97v56.85l4.09,24.36-14.29,11.6,8.16,11.6,23.47-20.89s-8.16-18.57-8.16-23.21-3.06-16.24-3.06-16.24l2.04-227.4,8.16-26.69-.02.02Z" style="fill:#0c0c0f;"/><polygon points="694.13 803.02 698.61 825.02 789.38 928.21 781.93 942.6 664.22 817.58 808.73 988.28 834.77 984.04 822.86 956.97 694.13 803.02" style="fill:#0c0c0f;"/><line x1="830.55" y1="949.14" x2="848.16" y2="913.01" style="fill:none;"/><polygon points="796.82 1011.19 834.77 984.04 897.84 978.77 927.17 863.94 998.87 863.94 1024.95 976 1081.97 980.63 1124.34 1010.28 1107.23 1032.51 821.27 1032.51 796.82 1011.19" style="fill:#0c0c0f;"/><polygon points="1078.71 913.01 1081.97 980.63 1121.89 985.27 1078.71 913.01" style="fill:#0c0c0f;"/><path d="M1243.28,765.76s-7.33,19.44-6.52,34.28l-129.54,144.48,132.79-135.23,2.44,13.9-15.49,36.13-98.59,114.85,136.88-156.59,20.36-35.15-21.19,25-14.66-14.81-6.52-26.86h.06Z" style="fill:#0c0c0f;"/><path d="M1227.54,486.78l35.79-20.87.92,14.6-11.01,7.31-11.01,6.27,11.01,32.36,22.95-3.13,11.01-3.13-1.56,245.58-6-231.96-25.61,1.45-10.76,230.51,4.35-230.51s-20.1-21.66-14.08-38.56l-6.02-9.91h.02Z" style="fill:#0c0c0f;"/><polygon points="1223.23 1.85 1094.01 333.7 1065.28 324.37 1080.67 315.05 1097.08 310.38 1212.97 9.55 1179.13 8.38 1089.9 277.73 1075.54 280.07 1170.92 6.18 1223.23 1.85" style="fill:#0c0c0f;"/><polygon points="870.15 323.39 911.74 304.95 1055.49 304.95 1060.42 293.74 1015.31 290.54 970.93 281.71 881.44 281.71 1075.54 280.07 1075.22 290.54 1065.28 324.37 870.15 323.39" style="fill:#0c0c0f;"/><polygon points="754.59 1.85 850.42 272.1 837.73 278.52 831.39 256.88 739.78 1.85 754.59 1.85" style="fill:#0c0c0f;"/><polygon points="712.31 6.14 813.08 285.04 811.67 293.74 704.55 1.85 712.31 6.14" style="fill:#0c0c0f;"/><polygon points="830.55 949.14 835.78 980.56 848.55 914.12 830.55 949.14" style="fill:#0c0c0f;"/><polygon points="606.79 781.75 634.8 774.31 651.6 817.84 289.27 994.08 279 985.59 385.46 937.8 379.86 920.81 390.13 920.81 394.8 933.56 611.46 825.28 631.07 804.04 627.32 793.43 611.46 793.43 606.79 781.75" style="fill:#0c0c0f;"/><polygon points="593.7 794.47 265.93 947.33 269.66 995.14 93.15 1083.26 67.95 1048.22 67.95 1021.68 255.66 938.87 593.7 794.47" style="fill:#0c0c0f;"/><path d="M653.27,479.02l-17.19,37.37-134.49-58.62,127.03,44.17,11.96-21.23-297.39-139.98s2.98-8.68,2.98-10.38,284.7,139.32,284.7,139.32l-260.04-139.32,282.45,148.68h0Z" style="fill:#0c0c0f;"/><polygon points="263.57 341.68 281.93 286.55 270.92 285.72 85.78 182.17 63.75 257.33 263.57 341.68" style="fill:#0c0c0f;"/><polygon points="1652.27 294.59 1669.61 337.99 1862.77 253.83 1863.92 192.04 1833.86 190.72 1652.27 294.59" style="fill:#0c0c0f;"/><polygon points="1656.88 344.58 1651.11 331.42 1285.65 502.36 1643.01 347.2 1287.21 520.18 1656.88 344.58" style="fill:#0c0c0f;"/><polygon points="1345.74 452.39 1320.3 457.66 1308.73 455.01 1272.88 474.75 1275.19 486.58 1345.74 452.39" style="fill:#0c0c0f;"/><polygon points="1660.2 939.08 1634.83 997.62 1534.09 939.08 1631.1 985.27 1643.03 949.25 1296.77 793.15 1643.03 939.91 1309.31 783.82 1660.2 939.08" style="fill:#0c0c0f;"/><polygon points="1669.37 947.97 1647.96 997.62 1836.38 1087.51 1863.49 1021.79 1669.37 947.97" style="fill:#0c0c0f;"/><polygon points="702.13 1088.76 710.7 1072.54 736.39 1068.22 745.91 1050.91 1166.47 1050.91 1172.19 1068.22 1206.45 1074.7 1219.76 1090.94 702.13 1088.76" style="fill:#0c0c0f;"/><polygon points="1682.36 1.85 1823.36 176.58 1860.47 120.33 1771.41 9.25 1874.06 7.84 1895.1 23.3 1861.71 103.47 1912.41 34.55 1908.69 3.62 1682.36 1.85" style="fill:#0c0c0f;"/><polygon points="265.18 12.75 154.61 161.3 87.13 158.04 19.65 12.75 235.03 12.75 127.33 136.83 148.88 146.61 265.18 12.75" style="fill:#0c0c0f;"/><path d="M1860.47,120.33l44.55-52.29,7.39,1007.55-54.28,5.07,16.74-55.83-1.12-327.39,24.56-2.54,2.23-17.76-26.79,1.28-1.12-63.46,23.44-15.22,1.12-156.08-27.9-19.04v-160.28l25.67-2.15,4.46-39.33-29.02,1.28v-13.96h23.44s3.36-16.5,3.36-20.29-27.9,1.28-27.9,1.28l1.12-16.5,22.33-3.82v-44.42l-32.27-6.1v-.02Z" style="fill:#0c0c0f;"/><path d="M6.34,1083.26h70.11l-13.8-24.39,3.19-43.46,2.12-76.52-50.98-5.58-1.07-21.74,25.5,2.41,4.26-119.48,20.17-2.49-2.08-103.85-48.9-3.62,1.07-21.74h37.18l1.07-19.31-35.04-2.41,1.07-22.94h25.5l1.07-20.53-25.5-7.25-1.56-73.92,38.74-9.4,4.89-193.27-49.61-3.03-1.09-37.58,20.06-2.47,1.63-11.08-22.22-3.69v-29.59l43.91-3.69s-.54-50.52-1.09-52.99l-13.46-8.29.3-50.37,13.52-2.56L9.41,12.75l-6.75,4.33,3.68,1066.17v.02Z" style="fill:#0c0c0f;"/><polygon points="270.79 943.77 278.64 978.18 342.52 950.15 334.67 923.37 609.26 793.43 270.79 943.77" style="fill:#39413b;"/><polygon points="639.52 776.85 650.74 806.15 670.91 797.24 660.83 774.31 670.91 765.38 639.52 776.85" style="fill:#39413b;"/><polygon points="646.26 583.19 646.26 710.59 664.18 709.32 664.18 579.35 646.26 583.19" style="fill:#39413b;"/><polygon points="655.22 487.63 638.4 516.92 663.06 518.2 674.27 492.72 655.22 487.63" style="fill:#39413b;"/><polygon points="278.64 309.23 268.56 338.54 332.44 374.23 344.76 337.26 278.64 309.23" style="fill:#39413b;"/><polygon points="284.25 292.67 280.76 302.97 615.99 463.41 284.25 292.67" style="fill:#39413b;"/><polygon points="664.18 475.24 688.22 491.02 710.85 443.7 784.61 363.18 777.3 351.55 786.07 337.43 664.18 475.24" style="fill:#39413b;"/><polygon points="856.16 286.81 861.28 316.69 886.84 315.86 890.49 306.72 909.47 305.91 911.66 288.47 856.16 286.81" style="fill:#39413b;"/><polygon points="813.83 296.76 829.16 297.59 840.84 314.2 849.6 316.69 845.94 293.44 848.87 280.16 834.99 285.15 813.83 296.76" style="fill:#39413b;"/><polygon points="740.79 6.2 839.38 275.19 816.73 285.15 719.62 6.2 740.79 6.2" style="fill:#39413b;"/><polygon points="707.21 7.87 796.29 247.78 716.38 6.65 707.21 7.87" style="fill:#39413b;"/><polygon points="688.31 800.31 663.75 818.01 786.07 958.25 779.33 938.51 786.51 931.02 693.09 823.46 699.09 818.69 688.31 800.31" style="fill:#39413b;"/><polygon points="850.24 917.19 844.97 950.08 879.15 955.33 895.59 972.51 908.08 917.19 850.24 917.19" style="fill:#39413b;"/><polygon points="1013.94 917.19 1024.46 972.51 1081.65 972.51 1074.41 912.71 1013.94 917.19" style="fill:#39413b;"/><path d="M797.64,1001.67l-21.04.75-6.58,17.95-29.59,12.7-26.96,32.89,23.01-7.48,3.94-8.97,430.63-4.48,8.55,14.2s26.31,10.47,27.62,10.47-21.04-34.38-21.04-34.38l-37.48-15.69-9.21-14.94-13.8-1.49v6.74l-17.1,24.66-293.89,1.13-18.41-16.82,1.31-17.18.04-.04Z" style="fill:#39413b;"/><path d="M1183.74,6.2l-89.49,264.15,17.91,8.57S1212,11.43,1212.94,6.65s-29.21-.43-29.21-.43l.02-.02Z" style="fill:#39413b;"/><path d="M1073.51,286.81l-9.41,25.34,12.24,4.28s9.41-21.42,10.37-24.64-13.18-4.99-13.18-4.99h-.02Z" style="fill:#39413b;"/><polygon points="1578.49 335.71 1586.98 363.55 1281.71 509.22 1268.53 483.51 1320.36 464.22 1331.66 466.38 1567.18 348.56 1578.49 335.71" style="fill:#39413b;"/><polygon points="1238.38 493.15 1246.86 499.59 1268.53 483.51 1238.38 493.15" style="fill:#39413b;"/><polygon points="1228.82 809.95 1213.67 848.68 1138.91 934.73 1144.59 947.65 1119.99 976.68 1103.91 957.33 1120.93 936.89 1126.69 942.62 1130.63 936.65 1125.81 928.68 1202.91 847 1228.82 809.95" style="fill:#39413b;"/><path d="M1643.4,286.81c.92-.45,5.55,10.08,5.55,10.08l11.12-12.64,174.19-94.79-6.49-9.49-184.37,106.84Z" style="fill:#39413b;"/><polygon points="1660.76 942.62 1640.55 993.5 1828.86 1086.44 1651.58 992.46 1660.76 942.62" style="fill:#39413b;"/><polygon points="1670.87 932.94 1674.54 946.52 1859.16 1021.7 1865.59 1010.21 1670.87 932.94" style="fill:#39413b;"/><polygon points="249.49 938.08 253.84 946.99 72.47 1021.34 64.61 1011.43 249.49 938.08" style="fill:#39413b;"/><polygon points="88.33 178.39 94.18 192.8 270.79 292.67 284.25 292.67 88.33 178.39" style="fill:#39413b;"/><polygon points="1281.45 790.81 1276.12 808.95 1574.74 954.07 1586.89 925.57 1281.45 790.81" style="fill:#39413b;"/><polygon points="1286.01 776.99 1283.19 785.5 1640.55 938.53 1286.01 776.99" style="fill:#39413b;"/><polygon points="355.22 356.77 348 376.04 519.38 449.94 526.31 434.74 355.22 356.77" style="fill:#282935;"/><polygon points="1261.31 547.55 1253.46 755.66 1275.83 767.02 1276.12 669.01 1264.95 665.92 1272.21 611.24 1276.12 547.55 1261.31 547.55" style="fill:#282935;"/><path d="M1107.23,314.24c5.27-2.17-4.71,22.57-4.71,22.57l36.3,47.45,26.32-7.23,19.05,22.7,8.17,39.2,28.12,39.2,28.12-7.23-133.39-158.04-7.99,1.34-.02.02Z" style="fill:#282935;"/><polygon points="1283.31 491.02 1313.77 472.96 1339.13 477.76 1291.58 504.19 1283.31 491.02" style="fill:#282935;"/><polygon points="1398.19 848.53 1394.91 860.47 1523.33 929.09 1536.64 909.69 1398.19 848.53" style="fill:#282935;"/><polygon points="1390.31 844.8 1382.46 854.5 1320.73 830.63 1326.02 813.47 1390.31 844.8" style="fill:#282935;"/><path d="M1385.19,444.97c-.86-4.95,6.34,10.81,6.34,10.81l171.52-83.18-3.69-12.24-174.17,84.6Z" style="fill:#282935;"/><polygon points="1121.64 206.47 1130.51 211.97 1166.18 131.01 1148.29 126.6 1121.64 206.47" style="fill:#282935;"/><polygon points="1153.59 116.51 1168.46 120.18 1193.87 59.15 1174.93 56.83 1153.59 116.51" style="fill:#282935;"/><polygon points="1189.46 12.77 1174.93 56.83 1194.32 48.58 1203.19 26.54 1189.46 12.77" style="fill:#282935;"/><polygon points="1630.97 301.28 1637.85 328.29 1598.81 347.86 1590.79 330.89 1355.53 443.16 1630.97 301.28" style="fill:#282935;"/><polygon points="790.8 198.5 803.42 193.44 834.41 271.97 818.29 281.27 790.8 198.5" style="fill:#282935;"/><polygon points="746.87 387.23 752.18 394.41 712.33 442.1 702.41 437.49 746.87 387.23" style="fill:#282935;"/><polygon points="896.87 975.94 922.01 854.5 1002.51 854.5 1024.95 976 994.97 863.94 930.41 863.94 896.87 975.94" style="fill:#282935;"/><polygon points="680.55 821.52 756.19 915.25 763.56 908.26 687.9 817.58 680.55 821.52" style="fill:#282935;"/><polygon points="127.05 267.92 63.75 341.68 56.12 261.91 127.05 267.92" style="fill:#282935;"/><polygon points="1828.86 261.91 1866.52 313.6 1873.65 258.95 1828.86 261.91" style="fill:#282935;"/><polygon points="1241.51 490.57 1260.04 480.49 1267.88 487.97 1248.08 499.22 1241.51 490.57" style="fill:#cdedfd;"/><polygon points="1318.35 451.5 1325.27 455.42 1572.23 340.1 1591.52 322.09 1318.35 451.5" style="fill:#cdedfd;"/><polygon points="1837.18 273.36 1860.94 305.93 1862.55 298.96 1840.8 271.12 1837.18 273.36" style="fill:#cdedfd;"/><polygon points="1651.5 283.93 1657.56 287.68 1832.23 187.45 1831.67 181.21 1651.5 283.93" style="fill:#cdedfd;"/><polygon points="1249.59 771.67 1244.19 794.24 1252.01 799.04 1250.21 789.44 1248.09 785.35 1249.59 771.67" style="fill:#cdedfd;"/><polygon points="1271.57 769.19 1280.27 772.5 1277.04 784.95 1276.07 775.8 1271.57 769.19" style="fill:#cdedfd;"/><polygon points="277.39 313.24 270.58 332.92 333.68 361.76 339.24 346.98 277.39 313.24" style="fill:#cdedfd;"/><polygon points="286.67 292.84 285.43 301.28 607.72 455.29 286.67 292.84" style="fill:#cdedfd;"/><polygon points="95.19 180.76 104.06 191.7 270.58 282.5 277.86 280.82 95.19 180.76" style="fill:#cdedfd;"/><polygon points="922.16 855.4 920.91 861.47 901.5 955.03 927.17 863.94 994.78 855.4 922.16 855.4" style="fill:#cdedfd;"/><path d="M270.04,953.3s9.13,24.53,9.13,21.7,60.6-30.2,60.6-30.2l-4.99-22.66-64.74,31.14v.02Z" style="fill:#cdedfd;"/><polygon points="265.88 941.02 268.48 948.7 607.72 790.98 265.88 941.02" style="fill:#cdedfd;"/><polygon points="256.41 943.35 70.27 1017.55 68.21 1010.51 256.41 943.35" style="fill:#cdedfd;"/><polygon points="1073.16 912.01 1073.16 961.32 1030.44 968.56 1078.26 968.56 1073.16 912.01" style="fill:#cdedfd;"/><polygon points="714.71 12.77 813.08 285.04 725.12 12.77 714.71 12.77" style="fill:#cdedfd;"/><path d="M273.88,6.84l-120.28,192.1-15.68-9.14s7.2-12.04,7.63-12.51,11.01,3.37,11.01,3.37L258.28,22.04l-11.49-3.15,4.24-10.59,22.87-1.45h-.02Z" style="fill:#cdedfd;"/><polygon points="107.08 282.5 92.96 273.68 83.83 282.16 95.87 293.5 74.68 316.16 62.23 302.01 51.43 303.41 54.34 337.5 60.56 340.72 106.26 287.83 107.08 282.5" style="fill:#cdedfd;"/><polygon points="56.12 350.2 61.97 352.68 64.43 636.52 64.71 669.43 64.84 684.27 65.79 794.52 66.11 831.88 59.08 831.56 59.08 796.18 55.46 681.8 56.17 667.81 53.29 630.79 53.29 615.97 61.24 615.16 60.52 588.01 42.43 583.89 42.43 530.32 56.17 522.18 56.12 350.2" style="fill:#cdedfd;"/><polygon points="1682.36 9.4 1813.76 179.97 1836.24 173.24 1832.27 158.95 1811.12 163.47 1700.66 24.56 1713.28 17.67 1710.64 8.65 1682.36 9.4" style="fill:#cdedfd;"/><polygon points="1862.55 313.6 1870.58 311.54 1869.06 435.45 1885.72 448.58 1889.34 509.22 1875.62 513.4 1876.35 529.81 1887.17 537.19 1889.34 589.71 1869.84 610.24 1869.06 989.79 1852.44 994.23 1853.23 980.03 1861.8 967.62 1862.55 313.6" style="fill:#cdedfd;"/><polygon points="1168.11 10.94 1171.99 19.72 1079.94 267.41 1072.91 269.65 1168.11 10.94" style="fill:#cdedfd;"/><polygon points="680.51 465.76 697.44 442.31 698.19 433.93 763.89 356.77 774.79 356.9 788.04 341.83 785.1 334.28 802.78 313.35 796.16 311.66 680.51 465.76" style="fill:#cdedfd;"/><polygon points="642.54 527.89 648.88 527.89 651.6 579.35 645.71 579.14 646.26 713.94 652.03 717.52 651.6 755.98 645.71 759.05 642.54 722.66 642.54 527.89" style="fill:#cdedfd;"/><polygon points="850.01 918.53 847.63 947.37 853.2 926.57 896.87 918.53 850.01 918.53" style="fill:#cdedfd;"/><polygon points="775.82 1004.52 768.11 1020.15 731.12 1037.78 706.48 1080.54 732.68 1042.53 770.1 1025.11 780.04 1007.04 787.2 1001.62 775.82 1004.52" style="fill:#cdedfd;"/><polygon points="881.55 978.18 837.34 983.82 801.04 1008.19 830.55 980.56 881.55 978.18" style="fill:#cdedfd;"/><polygon points="636.32 768.08 661.03 756.77 666.56 763.91 639.52 776.85 636.32 768.08" style="fill:#cdedfd;"/><polygon points="1070.59 285.04 1058.44 318.72 1069.48 315.59 1079.96 291.11 1070.59 285.04" style="fill:#cdedfd;"/><polygon points="1100.08 338.69 1152.23 399.27 1201.74 456.8 1227.54 486.78 1235.49 482.53 1215.07 459.75 1207.97 456.78 1150.71 385.63 1102.52 328.59 1100.08 338.69" style="fill:#cdedfd;"/><polygon points="1250.57 547.1 1248.09 698.93 1238.85 719.27 1237.52 726.07 1246.8 720.78 1248.79 708.72 1254.77 701.19 1258.44 623.54 1266.04 617.51 1261.39 608.45 1253.46 609.22 1257.37 547.1 1250.57 547.1" style="fill:#cdedfd;"/><polygon points="1119.99 935.99 1126.59 938 1131.45 935.5 1127.48 929.98 1229.1 817.37 1241.06 804.85 1253.4 807.86 1263.96 804.36 1245.9 789.34 1236.66 792.34 1232.25 804.85 1119.99 935.99" style="fill:#cdedfd;"/><polygon points="663.19 823.74 775.84 954.32 809.34 993.18 815.59 983.53 788.46 956.63 663.19 823.74" style="fill:#cdedfd;"/><polygon points="1292.06 779.77 1647.96 932.96 1648.41 962.49 1662.28 942.19 1818.96 1001.67 1821.94 1022.24 1837.8 1025.6 1847.72 1008.7 1287.21 765.76 1292.06 779.77" style="fill:#cdedfd;"/></g></g></svg>