<?xml version="1.0" encoding="UTF-8"?>
<svg id="Layer_2" xmlns="http://www.w3.org/2000/svg" version="1.1" viewBox="0 0 2107.7 1248.5">
  <!-- Generator: Adobe Illustrator 29.8.2, SVG Export Plug-In . SVG Version: 2.1.1 Build 3)  -->
  <defs>
    <style>
      .st0 {
        fill: none;
      }

      .st1 {
        fill: #282424;
      }

      .st2 {
        fill: #cdedfd;
      }

      .st3 {
        fill: #282935;
      }

      .st4 {
        fill: #39413b;
      }

      .st5 {
        fill: #0c0c0f;
      }
    </style>
  </defs>
  <g id="Layer_1-2">
    <g id="uuid-0bfc15e2-0efc-4db3-987b-d6dec9892397">
      <path class="st3" d="M139.2,76.6l15.5,260.1s35.4,11.2,43,12S374.1,76.6,374.1,76.6h-234.9Z"/>
      <polygon class="st3" points="1765.1 76.6 1950.3 330.6 2012 334.9 2012.2 76.6 1765.1 76.6"/>
      <polygon class="st3" points="2004.6 1005.8 1949.9 1004 1936.8 1063.6 1818.8 1165.7 2012.2 1168.9 2004.6 1005.8"/>
      <polygon class="st3" points="103 1013.6 175.8 1012.1 173.9 1075.2 260.1 1166.7 92.2 1168.9 103 1013.6"/>
      <path class="st3" d="M158.3,948.1c-3.8-8.6,1.8,114.9,1.8,114.9l30.9-14.8,5-100.5-37.7-41v41.5h0Z"/>
      <polygon class="st3" points="740 584.3 734 605.1 717 587.3 154.7 336.7 167.9 318.9 740 584.3"/>
      <polygon class="st3" points="926.6 389 935.3 409.8 986.2 409.8 1002.1 390.8 926.6 389"/>
      <polygon class="st3" points="1356.3 553.1 1345.2 541.2 1355.7 534.5 1375.5 538.2 1356.3 553.1"/>
      <polygon class="st3" points="1950.3 339.1 1412.2 581 1414.6 571.6 1949.2 317.9 1961.2 328.6 1950.3 339.1"/>
      <path class="st3" d="M1342.7,778l-16.8,14.3v13.2s-11.4,6.9,1.3,21.4l2,9.9,10.1,3,3.3-61.8h0s0,0,0,0Z"/>
      <path class="st1" d="M151.2,76.6l13.8,1012.7,568.1-252.8-3-245.8L157.4,327.5l6.1-93.5,590.9,309.9s144.7-174.9,144.7-169.7-105.1-299.5-105.1-299.5l64,1.9,91.4,271.7,210.2,1.7,97.5-271.8s59.4-1.6,64-1.6-115.7,297.7-115.7,297.7l153.8,173.1,562-287.4,15.2,64.1-554.3,271.8-4.6,242.4,575.7,247.6-4.6-1007.6,63.8,3.4v1086.3l-106.5-7.7-545.2-266.6-147.7,180.1,21.3-6.9,12.2,26,36.5,12.1,32,64.1h-526.9l32-58.9,36.5-13.9,7.6-22.5,35-3.5-153.8-174.9-565,273.6-88.1-1V76.6h59ZM780,577.4s2.4,14.8-8.2,28.1,0,226.5,0,226.5c0,0,18.9,20.1,9.4,40.2l139.1,150.1,21.2-34.8,62.5,2.7,15.3-57.6h75.5l9.4,49.6,67.2,1.3,20,41.5,129.7-144.8s-2.4-36.2,16.5-42.9v-226.5s-13-1.3-9.4-33.5l-143.8-166.2s-24.8-2.7-27.1-16.1h-205.1s-14.2,14.8-28.3,9.4l-143.8,172.9h0Z"/>
      <polygon class="st5" points="937 366.8 937 391.1 915.6 403.9 922.7 415.5 952.3 400.4 949.2 359.8 937 366.8"/>
      <polygon class="st5" points="922.7 415.5 783.9 567.5 798.2 530.3 879.8 436.4 871.7 421.3 755.3 544.3 902.3 376 922.7 415.5"/>
      <path class="st5" d="M778.8,577.9c5.1-10.4-7.1-11.6-7.1-11.6l-15.3,18.6,4.1,20.9-4.1,49.9v120.7l-16.3,4.7,18.4,7v56.8l4.1,24.4-14.3,11.6,8.2,11.6,23.5-20.9s-8.2-18.6-8.2-23.2-3.1-16.2-3.1-16.2l2-227.4,8.2-26.7h0s0,0,0,0Z"/>
      <polygon class="st5" points="786.3 877.8 790.8 899.8 881.5 1003 874.1 1017.3 756.4 892.3 900.9 1063 926.9 1058.8 915 1031.7 786.3 877.8"/>
      <line class="st0" x1="922.7" y1="1023.9" x2="940.3" y2="987.8"/>
      <polygon class="st5" points="889 1085.9 926.9 1058.8 990 1053.5 1019.3 938.7 1091 938.7 1117.1 1050.7 1174.1 1055.4 1216.5 1085 1199.4 1107.3 913.4 1107.3 889 1085.9"/>
      <polygon class="st5" points="1170.9 987.8 1174.1 1055.4 1214 1060 1170.9 987.8"/>
      <path class="st5" d="M1335.4,840.5s-7.3,19.4-6.5,34.3l-129.5,144.5,132.8-135.2,2.4,13.9-15.5,36.1-98.6,114.8,136.9-156.6,20.4-35.2-21.2,25-14.7-14.8-6.5-26.9h0,0Z"/>
      <path class="st5" d="M1319.7,561.5l35.8-20.9.9,14.6-11,7.3-11,6.3,11,32.4,22.9-3.1,11-3.1-1.6,245.6-6-232-25.6,1.5-10.8,230.5,4.3-230.5s-20.1-21.7-14.1-38.6l-6-9.9h0Z"/>
      <polygon class="st5" points="1315.4 76.6 1186.2 408.4 1157.4 399.1 1172.8 389.8 1189.2 385.1 1305.1 84.3 1271.3 83.1 1182.1 352.5 1167.7 354.8 1263.1 80.9 1315.4 76.6"/>
      <polygon class="st5" points="962.3 398.1 1003.9 379.7 1147.6 379.7 1152.6 368.5 1107.5 365.3 1063.1 356.5 973.6 356.5 1167.7 354.8 1167.4 365.3 1157.4 399.1 962.3 398.1"/>
      <polygon class="st5" points="846.7 76.6 942.6 346.8 929.9 353.3 923.5 331.6 831.9 76.6 846.7 76.6"/>
      <polygon class="st5" points="804.5 80.9 905.2 359.8 903.8 368.5 796.7 76.6 804.5 80.9"/>
      <polygon class="st5" points="922.7 1023.9 927.9 1055.3 940.7 988.9 922.7 1023.9"/>
      <polygon class="st5" points="698.9 856.5 727 849.1 743.8 892.6 381.4 1068.8 371.2 1060.3 477.6 1012.5 472 995.6 482.3 995.6 487 1008.3 703.6 900 723.2 878.8 719.5 868.2 703.6 868.2 698.9 856.5"/>
      <polygon class="st5" points="685.9 869.2 358.1 1022.1 361.8 1069.9 185.3 1158 160.1 1123 160.1 1096.4 347.8 1013.6 685.9 869.2"/>
      <path class="st5" d="M745.4,553.8l-17.2,37.4-134.5-58.6,127,44.2,12-21.2-297.4-140s3-8.7,3-10.4,284.7,139.3,284.7,139.3l-260-139.3,282.5,148.7h0Z"/>
      <polygon class="st5" points="355.7 416.4 374.1 361.3 363.1 360.5 177.9 256.9 155.9 332.1 355.7 416.4"/>
      <polygon class="st5" points="1744.4 369.3 1761.8 412.7 1954.9 328.6 1956.1 266.8 1926 265.5 1744.4 369.3"/>
      <polygon class="st5" points="1749 419.3 1743.3 406.2 1377.8 577.1 1735.2 421.9 1379.4 594.9 1749 419.3"/>
      <polygon class="st5" points="1437.9 527.1 1412.5 532.4 1400.9 529.8 1365 549.5 1367.3 561.3 1437.9 527.1"/>
      <polygon class="st5" points="1752.4 1013.8 1727 1072.4 1626.2 1013.8 1723.3 1060 1735.2 1024 1388.9 867.9 1735.2 1014.7 1401.5 858.6 1752.4 1013.8"/>
      <polygon class="st5" points="1761.5 1022.7 1740.1 1072.4 1928.5 1162.3 1955.6 1096.5 1761.5 1022.7"/>
      <polygon class="st5" points="794.3 1163.5 802.9 1147.3 828.5 1143 838.1 1125.7 1258.6 1125.7 1264.3 1143 1298.6 1149.4 1311.9 1165.7 794.3 1163.5"/>
      <polygon class="st5" points="1774.5 76.6 1915.5 251.3 1952.6 195.1 1863.6 84 1966.2 82.6 1987.3 98 1953.9 178.2 2004.6 109.3 2000.8 78.4 1774.5 76.6"/>
      <polygon class="st5" points="357.3 87.5 246.8 236 179.3 232.8 111.8 87.5 327.2 87.5 219.5 211.6 241 221.4 357.3 87.5"/>
      <path class="st5" d="M1952.6,195.1l44.6-52.3,7.4,1007.5-54.3,5.1,16.7-55.8-1.1-327.4,24.6-2.5,2.2-17.8-26.8,1.3-1.1-63.5,23.4-15.2,1.1-156.1-27.9-19v-160.3l25.7-2.1,4.5-39.3-29,1.3v-14h23.4s3.4-16.5,3.4-20.3-27.9,1.3-27.9,1.3l1.1-16.5,22.3-3.8v-44.4l-32.3-6.1h0s0,0,0,0Z"/>
      <path class="st5" d="M98.5,1158h70.1l-13.8-24.4,3.2-43.5,2.1-76.5-51-5.6-1.1-21.7,25.5,2.4,4.3-119.5,20.2-2.5-2.1-103.8-48.9-3.6,1.1-21.7h37.2l1.1-19.3-35-2.4,1.1-22.9h25.5l1.1-20.5-25.5-7.2-1.6-73.9,38.7-9.4,4.9-193.3-49.6-3-1.1-37.6,20.1-2.5,1.6-11.1-22.2-3.7v-29.6l43.9-3.7s-.5-50.5-1.1-53l-13.5-8.3.3-50.4,13.5-2.6-45.9-95.7-6.8,4.3,3.7,1066.2h0s0,0,0,0Z"/>
      <polygon class="st4" points="362.9 1018.5 370.8 1052.9 434.7 1024.9 426.8 998.1 701.4 868.2 362.9 1018.5"/>
      <polygon class="st4" points="731.7 851.6 742.9 880.9 763.1 872 753 849.1 763.1 840.1 731.7 851.6"/>
      <polygon class="st4" points="738.4 657.9 738.4 785.3 756.3 784.1 756.3 654.1 738.4 657.9"/>
      <polygon class="st4" points="747.4 562.4 730.6 591.7 755.2 592.9 766.4 567.5 747.4 562.4"/>
      <polygon class="st4" points="370.8 384 360.7 413.3 424.6 449 436.9 412 370.8 384"/>
      <polygon class="st4" points="376.4 367.4 372.9 377.7 708.1 538.2 376.4 367.4"/>
      <polygon class="st4" points="756.3 550 780.4 565.8 803 518.4 876.8 437.9 869.5 426.3 878.2 412.2 756.3 550"/>
      <polygon class="st4" points="948.3 361.6 953.4 391.4 979 390.6 982.6 381.5 1001.6 380.7 1003.8 363.2 948.3 361.6"/>
      <polygon class="st4" points="906 371.5 921.3 372.3 933 388.9 941.8 391.4 938.1 368.2 941 354.9 927.1 359.9 906 371.5"/>
      <polygon class="st4" points="832.9 80.9 931.5 349.9 908.9 359.9 811.8 80.9 832.9 80.9"/>
      <polygon class="st4" points="799.4 82.6 888.4 322.5 808.5 81.4 799.4 82.6"/>
      <polygon class="st4" points="780.5 875.1 755.9 892.8 878.2 1033 871.5 1013.3 878.7 1005.8 785.2 898.2 791.2 893.4 780.5 875.1"/>
      <polygon class="st4" points="942.4 991.9 937.1 1024.8 971.3 1030.1 987.7 1047.3 1000.2 991.9 942.4 991.9"/>
      <polygon class="st4" points="1106.1 991.9 1116.6 1047.3 1173.8 1047.3 1166.6 987.5 1106.1 991.9"/>
      <path class="st4" d="M889.8,1076.4l-21,.8-6.6,18-29.6,12.7-27,32.9,23-7.5,3.9-9,430.6-4.5,8.6,14.2s26.3,10.5,27.6,10.5-21-34.4-21-34.4l-37.5-15.7-9.2-14.9-13.8-1.5v6.7l-17.1,24.7-293.9,1.1-18.4-16.8,1.3-17.2h0s0,0,0,0Z"/>
      <path class="st4" d="M1275.9,80.9l-89.5,264.2,17.9,8.6s99.8-267.5,100.8-272.3-29.2-.4-29.2-.4h0s0,0,0,0Z"/>
      <path class="st4" d="M1165.7,361.6l-9.4,25.3,12.2,4.3s9.4-21.4,10.4-24.6-13.2-5-13.2-5h0,0Z"/>
      <polygon class="st4" points="1670.6 410.5 1679.1 438.3 1373.9 584 1360.7 558.3 1412.5 539 1423.8 541.1 1659.3 423.3 1670.6 410.5"/>
      <polygon class="st4" points="1330.5 567.9 1339 574.3 1360.7 558.3 1330.5 567.9"/>
      <polygon class="st4" points="1321 884.7 1305.8 923.4 1231.1 1009.5 1236.7 1022.4 1212.1 1051.4 1196.1 1032.1 1213.1 1011.6 1218.8 1017.4 1222.8 1011.4 1218 1003.4 1295.1 921.7 1321 884.7"/>
      <path class="st4" d="M1735.6,361.6c.9-.5,5.6,10.1,5.6,10.1l11.1-12.6,174.2-94.8-6.5-9.5-184.4,106.8h0Z"/>
      <polygon class="st4" points="1752.9 1017.4 1732.7 1068.2 1921 1161.2 1743.7 1067.2 1752.9 1017.4"/>
      <polygon class="st4" points="1763 1007.7 1766.7 1021.3 1951.3 1096.4 1957.7 1085 1763 1007.7"/>
      <polygon class="st4" points="341.6 1012.8 346 1021.7 164.6 1096.1 156.8 1086.2 341.6 1012.8"/>
      <polygon class="st4" points="180.5 253.1 186.3 267.5 362.9 367.4 376.4 367.4 180.5 253.1"/>
      <polygon class="st4" points="1373.6 865.6 1368.3 883.7 1666.9 1028.8 1679 1000.3 1373.6 865.6"/>
      <polygon class="st4" points="1378.2 851.7 1375.3 860.2 1732.7 1013.3 1378.2 851.7"/>
      <polygon class="st3" points="447.4 431.5 440.2 450.8 611.5 524.7 618.5 509.5 447.4 431.5"/>
      <polygon class="st3" points="1353.5 622.3 1345.6 830.4 1368 841.8 1368.3 743.8 1357.1 740.7 1364.4 686 1368.3 622.3 1353.5 622.3"/>
      <path class="st3" d="M1199.4,389c5.3-2.2-4.7,22.6-4.7,22.6l36.3,47.5,26.3-7.2,19.1,22.7,8.2,39.2,28.1,39.2,28.1-7.2-133.4-158-8,1.3h0s0,0,0,0Z"/>
      <polygon class="st3" points="1375.5 565.8 1405.9 547.7 1431.3 552.5 1383.7 578.9 1375.5 565.8"/>
      <polygon class="st3" points="1490.3 923.3 1487.1 935.2 1615.5 1003.8 1628.8 984.4 1490.3 923.3"/>
      <polygon class="st3" points="1482.5 919.5 1474.6 929.2 1412.9 905.4 1418.2 888.2 1482.5 919.5"/>
      <path class="st3" d="M1477.3,519.7c-.9-5,6.3,10.8,6.3,10.8l171.5-83.2-3.7-12.2-174.2,84.6h0Z"/>
      <polygon class="st3" points="1213.8 281.2 1222.7 286.7 1258.3 205.8 1240.4 201.3 1213.8 281.2"/>
      <polygon class="st3" points="1245.7 191.3 1260.6 194.9 1286 133.9 1267.1 131.6 1245.7 191.3"/>
      <polygon class="st3" points="1281.6 87.5 1267.1 131.6 1286.5 123.3 1295.3 101.3 1281.6 87.5"/>
      <polygon class="st3" points="1723.1 376 1730 403 1691 422.6 1682.9 405.6 1447.7 517.9 1723.1 376"/>
      <polygon class="st3" points="883 273.2 895.6 268.2 926.6 346.7 910.4 356 883 273.2"/>
      <polygon class="st3" points="839 462 844.3 469.2 804.5 516.8 794.6 512.2 839 462"/>
      <polygon class="st3" points="989 1050.7 1014.2 929.2 1094.7 929.2 1117.1 1050.7 1087.1 938.7 1022.6 938.7 989 1050.7"/>
      <polygon class="st3" points="772.7 896.3 848.3 990 855.7 983 780.1 892.3 772.7 896.3"/>
      <polygon class="st3" points="219.2 342.7 155.9 416.4 148.3 336.7 219.2 342.7"/>
      <polygon class="st3" points="1921 336.7 1958.7 388.3 1965.8 333.7 1921 336.7"/>
      <polygon class="st2" points="1333.7 565.3 1352.2 555.2 1360 562.7 1340.2 574 1333.7 565.3"/>
      <polygon class="st2" points="1410.5 526.2 1417.4 530.2 1664.4 414.8 1683.7 396.8 1410.5 526.2"/>
      <polygon class="st2" points="1929.3 348.1 1953.1 380.7 1954.7 373.7 1933 345.9 1929.3 348.1"/>
      <polygon class="st2" points="1743.7 358.7 1749.7 362.4 1924.4 262.2 1923.8 256 1743.7 358.7"/>
      <polygon class="st2" points="1341.7 846.4 1336.3 869 1344.2 873.8 1342.4 864.2 1340.2 860.1 1341.7 846.4"/>
      <polygon class="st2" points="1363.7 843.9 1372.4 847.2 1369.2 859.7 1368.2 850.5 1363.7 843.9"/>
      <polygon class="st2" points="369.5 388 362.7 407.7 425.8 436.5 431.4 421.7 369.5 388"/>
      <polygon class="st2" points="378.8 367.6 377.6 376 699.9 530 378.8 367.6"/>
      <polygon class="st2" points="187.3 255.5 196.2 266.4 362.7 357.2 370 355.6 187.3 255.5"/>
      <polygon class="st2" points="1014.3 930.1 1013.1 936.2 993.7 1029.8 1019.3 938.7 1086.9 930.1 1014.3 930.1"/>
      <path class="st2" d="M362.2,1028s9.1,24.5,9.1,21.7,60.6-30.2,60.6-30.2l-5-22.7-64.7,31.1h0s0,0,0,0Z"/>
      <polygon class="st2" points="358 1015.8 360.6 1023.4 699.9 865.7 358 1015.8"/>
      <polygon class="st2" points="348.6 1018.1 162.4 1092.3 160.4 1085.3 348.6 1018.1"/>
      <polygon class="st2" points="1165.3 986.8 1165.3 1036.1 1122.6 1043.3 1170.4 1043.3 1165.3 986.8"/>
      <polygon class="st2" points="806.9 87.5 905.2 359.8 817.3 87.5 806.9 87.5"/>
      <path class="st2" d="M366,81.6l-120.3,192.1-15.7-9.1s7.2-12,7.6-12.5,11,3.4,11,3.4l101.7-158.6-11.5-3.1,4.2-10.6,22.9-1.4h0Z"/>
      <polygon class="st2" points="199.2 357.2 185.1 348.4 176 356.9 188 368.2 166.8 390.9 154.4 376.8 143.6 378.2 146.5 412.2 152.7 415.5 198.4 362.6 199.2 357.2"/>
      <polygon class="st2" points="148.3 424.9 154.1 427.4 156.6 711.3 156.9 744.2 157 759 157.9 869.3 158.3 906.6 151.2 906.3 151.2 870.9 147.6 756.5 148.3 742.6 145.4 705.5 145.4 690.7 153.4 689.9 152.7 662.8 134.6 658.6 134.6 605.1 148.3 596.9 148.3 424.9"/>
      <polygon class="st2" points="1774.5 84.1 1905.9 254.7 1928.4 248 1924.4 233.7 1903.3 238.2 1792.8 99.3 1805.4 92.4 1802.8 83.4 1774.5 84.1"/>
      <polygon class="st2" points="1954.7 388.3 1962.7 386.3 1961.2 510.2 1977.9 523.3 1981.5 584 1967.8 588.1 1968.5 604.6 1979.3 611.9 1981.5 664.5 1962 685 1961.2 1064.5 1944.6 1069 1945.4 1054.8 1954 1042.4 1954.7 388.3"/>
      <polygon class="st2" points="1260.3 85.7 1264.1 94.5 1172.1 342.2 1165.1 344.4 1260.3 85.7"/>
      <polygon class="st2" points="772.7 540.5 789.6 517.1 790.3 508.7 856 431.5 866.9 431.6 880.2 416.6 877.3 409 894.9 388.1 888.3 386.4 772.7 540.5"/>
      <polygon class="st2" points="734.7 602.6 741 602.6 743.8 654.1 737.9 653.9 738.4 788.7 744.2 792.3 743.8 830.7 737.9 833.8 734.7 797.4 734.7 602.6"/>
      <polygon class="st2" points="942.2 993.3 939.8 1022.1 945.4 1001.3 989 993.3 942.2 993.3"/>
      <polygon class="st2" points="868 1079.3 860.3 1094.9 823.3 1112.5 798.6 1155.3 824.8 1117.3 862.3 1099.9 872.2 1081.8 879.4 1076.4 868 1079.3"/>
      <polygon class="st2" points="973.7 1052.9 929.5 1058.6 893.2 1082.9 922.7 1055.3 973.7 1052.9"/>
      <polygon class="st2" points="728.5 842.8 753.2 831.5 758.7 838.7 731.7 851.6 728.5 842.8"/>
      <polygon class="st2" points="1162.7 359.8 1150.6 393.5 1161.6 390.3 1172.1 365.9 1162.7 359.8"/>
      <polygon class="st2" points="1192.2 413.4 1244.4 474 1293.9 531.5 1319.7 561.5 1327.6 557.3 1307.2 534.5 1300.1 531.5 1242.9 460.4 1194.7 403.3 1192.2 413.4"/>
      <polygon class="st2" points="1342.7 621.8 1340.2 773.7 1331 794 1329.7 800.8 1339 795.5 1340.9 783.5 1346.9 775.9 1350.6 698.3 1358.2 692.3 1353.5 683.2 1345.6 684 1349.5 621.8 1342.7 621.8"/>
      <polygon class="st2" points="1212.1 1010.7 1218.7 1012.7 1223.6 1010.2 1219.6 1004.7 1321.3 892.1 1333.2 879.6 1345.6 882.6 1356.1 879.1 1338.1 864.1 1328.8 867.1 1324.4 879.6 1212.1 1010.7"/>
      <polygon class="st2" points="755.3 898.5 868 1029.1 901.5 1067.9 907.7 1058.3 880.6 1031.4 755.3 898.5"/>
      <polygon class="st2" points="1384.2 854.5 1740.1 1007.7 1740.6 1037.2 1754.4 1016.9 1911.1 1076.4 1914.1 1097 1930 1100.3 1939.9 1083.4 1379.4 840.5 1384.2 854.5"/>
    </g>
    <g>
      <path class="st1" d="M756.3,0l29.8,81.4h57.8s8.5-3.7,8.5-6.4S833.8,0,833.8,0h-77.5Z"/>
      <polygon class="st1" points="1250 80.9 1327.6 79.2 1353.6 0 1267.7 0 1250 80.9"/>
      <polygon class="st1" points="374.1 76.6 440.2 0 0 0 0 222.5 92.2 268.2 94.8 87.5 374.1 76.6"/>
      <polygon class="st1" points="1765.1 76.6 1655.2 0 2107.7 0 2107.7 265.5 2012.1 265.5 2012.2 74.7 1765.1 76.6"/>
      <polygon class="st1" points="1590.8 1242.7 1649.7 1110.4 1722.3 1162.3 1740.1 1248.5 1590.8 1242.7"/>
      <polygon class="st1" points="378.8 1248.5 397.2 1168.4 450.6 1116.4 532.2 1248.5 378.8 1248.5"/>
      <polygon class="st1" points="793.6 1162.5 760.9 1192.5 749.2 1248.7 1371.6 1248.5 1347.2 1188.6 1306.7 1163.8 793.6 1162.5"/>
      <path class="st1" d="M2012.1,1168l47.4-283.3,33.1,20.9s-33.4,287.8-40.3,282.6-40.3-20.2-40.3-20.2Z"/>
      <polygon class="st1" points="2012.1 265.5 2045.6 624.3 2080.4 637 2046.3 265.5 2012.1 265.5"/>
      <path class="st1" d="M92.2,436.5l-25,187.8-27.4,10.2,18.3-224.7s32.2,2.2,35.1-2.4-.9,29.1-.9,29.1Z"/>
      <polygon class="st1" points="45.8 882.9 94.8 1055.3 92.2 1168.9 77.8 1171 18.3 914.9 45.8 882.9"/>
      <polygon class="st3" points="92.2 436.5 101.1 1040.7 72.2 975.7 61.8 888.2 43.8 874 0 941.2 0 860.5 39.7 798.2 1.2 793.5 -.7 737.6 36.2 735.7 .2 692.2 0 618.4 56.6 671.4 39.7 634.5 92.2 436.5"/>
      <polygon class="st3" points="2009.2 290.4 2045.6 624.3 2068 646.4 2106.8 594.7 2107.7 699.5 2091 715.3 2093.9 735.4 2108.2 823 2092.4 817.2 2099.6 838.8 2111.1 854.6 2108.2 937.8 2059.5 884.7 2012.1 1069 2009.2 290.4"/>
      <polygon class="st3" points="1649.7 1110.4 1722.3 1162.3 1740.1 1248.5 1897.7 1248.5 1875.9 1145.7 1797.3 1107.3 1649.7 1110.4"/>
      <path class="st3" d="M378.8,1248.5l18.3-80.2,53.5-51.9s-146.9,4.9-149.3,0-63.5,48.2-63.5,48.2l-31.8,83.9h172.8Z"/>
      <polygon class="st5" points="0 924.4 -.3 954.5 39.7 897.1 47.9 900.6 61.9 973.3 101.1 1055.2 103.9 1030 78.7 969.8 61.8 888.2 45.8 867.7 0 924.4"/>
      <polygon class="st5" points="0 868.2 39.7 798.2 1.2 793.5 0 868.2"/>
      <polygon class="st5" points=".2 692.2 -.7 737.6 36.2 735.7 .2 692.2"/>
      <polygon class="st5" points="0 580.7 0 618.4 56.6 671.4 65.4 664 46.6 625.3 94.1 452.8 99.1 425 84.2 423 36.2 591.1 0 580.7"/>
      <polygon class="st5" points="156.8 1137.1 237.8 1164.6 206 1248.5 178.8 1246.6 103.9 1158 156.8 1137.1"/>
      <polygon class="st5" points="228.6 1133.3 253.7 1154 301.3 1116.4 296.3 1097.9 228.6 1133.3"/>
      <path class="st5" d="M2012.1,1069l-14,76.7,14,22.3,53-259.2,41.1,39.7,1.2-30.6s-43.7-58.4-45.8-45.8-49.5,196.9-49.5,196.9Z"/>
      <polygon class="st5" points="2111.1 854.6 2064 826.2 2053.4 802.7 2084 781.6 2105.1 795.7 2108.2 823 2081.6 808.6 2099.6 838.8 2111.1 854.6"/>
      <polygon class="st5" points="1998.2 278.4 2045.6 624.3 2068 646.4 2106.8 594.7 2106.2 580.9 2072.7 612.3 2018.6 256 1999.1 244.5 1998.2 278.4"/>
      <polygon class="st5" points="1950.3 1155.4 1926.5 1144.2 1882.8 1172.2 1897.7 1248.5 2107.7 1248.5 2070.9 1179.5 2004.6 1155.4 1950.3 1155.4"/>
      <path class="st5" d="M772.7,11.8l24,60.6h47.2s-15.1-57.4-15.1-60.6-56.1,0-56.1,0Z"/>
      <path class="st5" d="M1277.6,11.9c0-1.6-13.5,60.7-13.5,60.7h55.9l22-63.3-64.3,2.6Z"/>
      <polygon class="st5" points="17.1 212.6 78.9 236 78.9 81.6 352.6 67.6 406.3 13.9 17.1 17.9 17.1 212.6"/>
      <polygon class="st5" points="1706.4 16.8 1774.5 66.7 2012.2 74.7 2018.5 242.5 2088.9 242.5 2088.9 25.5 1706.4 16.8"/>
      <path class="st4" d="M383.3,1165.7l52.3-43.7h-130.4s-48.7,44.4-53.8,43.7,131.9,0,131.9,0Z"/>
      <polygon class="st4" points="1678.6 1117.8 1732.7 1162.3 1874.3 1165 1805.8 1117.8 1678.6 1117.8"/>
      <polygon class="st4" points="1875.9 1145.7 1882.8 1172.2 1944.6 1172.2 1949.9 1141.2 1875.9 1145.7"/>
      <polygon class="st4" points="2092.6 923.3 2052.4 1177.9 2107.7 1248.5 2108.2 937.8 2092.6 923.3"/>
      <polygon class="st4" points="2081.6 808.6 2111.1 849.3 2109.6 815.1 2081.6 808.6"/>
      <polygon class="st4" points="2107.7 699.5 2082.5 716.3 2087.7 754.4 2111.1 799 2107.7 699.5"/>
      <polygon class="st4" points="2107.7 265.5 2046.3 265.5 2072.7 612.3 2106.8 594.7 2107.7 265.5"/>
      <polygon class="st4" points="1330.5 804.9 1332.8 830.7 1348 829.6 1351.1 803.4 1330.5 804.9"/>
      <polygon class="st4" points="1265.9 46 1264.1 72.5 1320 72.5 1331.2 50.5 1323.9 49.4 1316 65.1 1275.1 66.2 1273.4 49.4 1265.9 46"/>
      <polygon class="st4" points="786.8 55.6 796.7 72.4 843.9 72.4 844.5 54.4 836.7 54.4 836.7 65.6 801.9 66.8 795.7 56.7 786.8 55.6"/>
      <polygon class="st4" points="0 222.5 92.2 268.2 93 407.4 58 409.8 49.6 547.2 36.2 591.1 0 580.7 0 222.5"/>
      <polygon class="st4" points="-.3 954.5 23.3 930 77.8 1171 103.9 1158 191.1 1247.5 0 1248.5 -.3 954.5"/>
      <polygon class="st4" points="780.1 1198.4 770.5 1239.8 1346.3 1238.6 1336.3 1197.2 1308.7 1177.1 805.6 1177.1 780.1 1198.4"/>
    </g>
    <g>
      <polygon class="st2" points="767.1 6.7 789.8 76.6 826.4 76.1 795.8 68.6 767.1 6.7"/>
      <polygon class="st2" points="1272.3 6.7 1258.3 74.7 1289.5 76.7 1267.7 68.9 1272.3 6.7"/>
      <polygon class="st2" points="1727.1 24.8 1774.5 59.3 1821.4 64.8 1774.3 52 1740.7 27 1765.7 25.5 1727.1 24.8"/>
      <polygon class="st2" points="1672.9 5.5 1767.8 72.5 1776.4 70.6 1672.9 5.5"/>
      <polygon class="st2" points="1649.7 1117.8 1720.3 1168.9 1739.1 1243.6 1728.1 1165.7 1649.7 1117.8"/>
      <polygon class="st2" points="1588.8 1233.1 1739.1 1243.6 1741.8 1250.3 1588.8 1250.3 1588.8 1233.1"/>
      <polygon class="st2" points="394.4 1171 378.8 1248.5 403.7 1177.1 450.6 1122 394.4 1171"/>
      <polygon class="st2" points="1701.8 1125.9 1739.1 1155.4 1836.6 1155.4 1804.9 1123 1701.8 1125.9"/>
      <polygon class="st2" points="333.9 1182.5 328.3 1239.2 364.2 1239.2 374.5 1182.3 333.9 1182.5"/>
      <polygon class="st2" points="168.6 927.2 192.8 949.7 191.1 1044.9 189 951.7 168.6 927.2"/>
    </g>
  </g>
</svg>